<?xml version="1.0" standalone="no"?><!DOCTYPE svg PUBLIC "-//W3C//DTD SVG 1.1//EN" "http://www.w3.org/Graphics/SVG/1.1/DTD/svg11.dtd"><svg t="1707304345756" class="icon" viewBox="0 0 1194 1024" version="1.1" xmlns="http://www.w3.org/2000/svg" p-id="3289" xmlns:xlink="http://www.w3.org/1999/xlink" width="233.203125" height="200"><path d="M643.71025063 39.98177657c22.15216406 4.176765 44.58861094 7.98177657 66.06286968 15.2200453 13.51435125 4.61412281 26.81002313 9.81867844 39.88701656 15.54806438 4.30797281 2.27425969 8.65968094 4.46104781 13.09886063 6.51662812 47.23462406 26.17585406 92.74168594 56.26605938 132.36628688 93.1353075 16.09476094 13.29567188 29.8059225 29.25922594 42.03006843 46.11936282 1.64009156 0.24054656 3.28018219 0.48109313 4.94214188 0.6997725 13.470615 2.5585425 24.99498844 10.32163969 35.66651437 18.54396281 44.34806343 33.80774531 77.82779063 80.91116156 97.72756313 132.82551281 10.95580875 27.72847406 13.97357625 58.2997725 10.9120725 87.84328032-1.29020531 15.67927125-5.53257375 31.07425969-11.83052438 45.48519374-15.15444187 39.49339406-49.39954406 67.92163969-86.46560344 86.18132063-4.50478406 2.05558125-9.03143531 4.11116156-13.51435031 6.21047906-15.30751687 6.82277906-30.72437344 13.44874688-46.60045593 18.85011375-5.66378156 2.05558125-11.76492 1.94624156-17.66924813 2.16492-0.17494313-8.96583187 4.22050125-17.16628688 4.43917969-26.11025062 2.7116175-6.86651438 1.92437344-14.34533063 2.47107094-21.56173125 4.08929344-20.29339406 0.28428281-40.91480625-1.09339407-61.25193657-0.32801812-0.98405437-1.02779062-2.95216406-1.35580875-3.93621844-0.72163969-9.16264219-3.38952187-17.95353094-6.05740312-26.70068343-13.09886063-41.33029594-33.45785906-81.72027375-65.40683344-111.70113844-19.00318875-18.85011375-39.07790438-36.62870156-60.63963562-52.52665219-37.74396375-29.67471563-80.38633219-54.23234625-127.3585425-65.66924812-8.55034125-0.98405437-16.77266531-3.54259689-25.06059188-5.64191344-0.52482938-8.20045594-0.96218719-16.4883825 0.74350781-24.57949875 3.49886062-17.14441875-0.80911125-34.98861094 3.12710719-52.04555812 1.81503375-24.12027375 1.13712937-48.45922594 4.50478313-72.44829094 0.56856469-15.85421438-0.72163969-31.88337094 2.75535281-47.51890687 0.59043281-0.89658281 1.74943031-2.73348563 2.31799594-3.65193658z" fill="#FF8F00" p-id="3290"></path><path d="M563.12710719 48.61959031c4.13302969-0.34988625 8.26605938-0.50296125 12.42095626-0.6997725 0.61230094 2.62414594 1.11526219 5.27015906 1.53075186 7.95990844-2.09931657 30.63690187-0.91845094 61.44874688-1.04965781 92.15125312 1.85877001 14.45466937 0.98405437 29.10614999 3.0177675 43.53895219 0.65603625 15.48246 0.26241469 31.00865625 0.43735781 46.51298438-3.0177675 1.29020531-5.96993156 2.88656062-9.31571812 3.01776749-30.02460094 3.25831406-58.84646906 13.44874688-85.91890594 26.52574032-9.77494313 6.40728938-23.20182188 9.33758531-29.0405475 20.27152594 9.33758531 0.19681125 17.77858781 4.30797281 25.12619625 9.79681125 17.12255156 10.71526219 28.18769906 28.07836031 39.82141219 44.06378156 21.7585425 30.72437344 45.26651437 60.18040969 66.15034218 91.51708406 3.08337094 4.15489781 5.729385 10.38724406 12.02733468 9.18451031 21.78040969-26.85375844 44.02004531-53.31389531 66.04100251-79.94897531 12.7708425-15.50432812 28.03462406-29.82779063 47.69384907-35.79772219 1.13712937-0.26241469 3.38952187-0.80911125 4.52665125-1.07152593 12.66150375-4.06742625 25.86970406-6.80091094 39.2528475-5.81685657 13.62368999-1.04965875 27.83781281 1.50888375 39.23097937 9.446925 7.63189031 5.51070656 16.66332562 10.34350781 20.00911219 19.76856469l1.3120725 9.00956719c-19.83416812 24.20774531-39.5589975 48.50296125-58.99954406 73.03872469-26.26332563 35.14168594-54.64783594 68.64328031-81.41412282 103.41321187-0.04373531 1.90250531-0.10933969 5.68564875-0.15307593 7.588155 26.06651438 31.07425969 49.22460094 64.55398594 75.31298437 95.67198188 58.54031906 71.52984094 116.84009156 144.5466975 189.61640063 202.38724312 29.89339406 23.09248313 60.02733469 46.16309812 93.22277906 64.40091094 26.70068345 16.3353075 55.74123001 28.18769906 84.56309812 40.21503469 4.65785906 1.83690188 9.35945344 3.63006844 14.10478407 5.29202717 0.153075 1.0059225 0.43735781 2.97403219 0.59043281 3.9799547-11.39316656 6.77904281-21.25558125 16.57585406-34.11389531 20.55580875-11.56810969 1.74943031-23.31116156 0.96218719-34.94487469 1.18086563-66.3471525-0.26241469-132.694305-0.153075-199.04145844-0.17494313-5.35763063 0.19681125-10.62779062-0.72163969-15.65740312-2.51480625-11.69931655-24.79817812-33.26104781-43.01412281-53.22642375-61.07699344-20.75262-20.29339406-41.19908906-40.91480625-61.62369-61.51435125-53.729385-58.27790437-98.47107094-123.9471525-144.67790438-188.129385-7.93804125 4.176765-12.39908906 12.3116175-17.77858781 19.13439657-22.67699344 29.71845094-46.75353094 58.36537594-69.34305188 88.14943031-29.41230094 35.60091094-56.65968094 72.929385-87.34031906 107.43690281-29.08428281 33.50159437-58.03735781 67.39681125-91.8451022 96.30615-73.12619625 0.96218719-146.27425969 0.10933969-219.42232405 0.30615-10.82460094 0.78724406-21.01503375-3.49886062-30.35261906-8.48473781-7.39134375-3.60820031-14.97949875-6.77904281-22.34897531-10.43097938 3.36765375-2.77722094 6.8883825-5.423235 10.97767687-7.06332562 13.470615-5.86059187 26.70068345-12.22414594 39.90888375-18.60956719 22.96127531-12.42095719 45.66013687-25.38861094 67.02505688-40.411845 63.87608156-45.66013687 121.73849625-99.08337094 176.08018218-155.611845 39.64646906-42.31435125 77.01867844-86.68428281 115.33120688-130.20136687 16.37904281-17.71298438 30.78997687-37.13166281 46.77539906-55.15079719 0.48109313-4.89840563-0.72163969-9.62186812-3.89248312-13.40501156-25.54168594-35.44783594-49.26833719-72.16400906-74.17585407-108.04920282-14.0173125-20.59954406-28.53758531-41.17722094-38.61867843-64.07289281-2.90842781-5.70751687-5.05148062-11.85239156-8.85649219-17.05694811-5.77312031 2.29612781-9.57813187 7.588155-13.99544438 11.72118467-36.47562656 36.27881531-71.24555813 75.18177657-96.06560343 120.53576344-5.59817813 9.753075-8.96583187 20.53394062-14.27972719 30.41822344-15.56993156-0.89658281-30.92118469-4.176765-46.33804031-6.34168594-7.54441875-0.52482938-15.17631001 0.153075-22.67699344-0.94031905-21.47425969-3.76127531-43.4296125-0.45922594-64.99134374-3.41138907-14.06104781-0.72163969-28.12209563-1.39954406-42.09567189-3.17084344 3.45512531-24.27334875 8.11298437-48.41548969 13.68929344-72.33895219 10.03735781-34.35444187 25.25740311-67.33120687 46.01002313-96.56856469 23.04874687-31.20546656 51.32391844-57.94988625 79.22733468-84.694305 24.42642375-23.02687969 49.18086562-45.79134375 76.01275594-66.01913437 60.09293813-47.89066031 126.33075188-90.8173125 201.03143531-111.56993156 8.68154906-2.64601406 17.45056969-5.11708406 26.46013688-6.31981782 12.90205031-3.23644687 26.2414575-4.5703875 39.05603625-7.82870156z" fill="#FF8F00" p-id="3291"></path></svg>